<svg width="30" height="26" viewBox="0 0 30 26" fill="none" xmlns="http://www.w3.org/2000/svg">
<g clip-path="url(#clip0_69_24)">
<path d="M29.4498 11.8483L16.3289 0.476836C15.5953 -0.158945 14.4053 -0.158945 13.6711 0.476836L0.550195 11.8483C-0.183398 12.4846 -0.183398 13.5154 0.550195 14.1517L13.6711 25.5232C14.4047 26.1595 15.5947 26.1595 16.3289 25.5232L29.4498 14.1517C30.1834 13.5154 30.1834 12.4846 29.4498 11.8483ZM23.533 12.4861L18.5988 16.4333C18.2988 16.6735 17.8119 16.4892 17.8119 16.1347V13.4062H12.1869V16.6562C12.1869 16.8807 11.9771 17.0625 11.7182 17.0625H9.84316C9.58418 17.0625 9.37441 16.8807 9.37441 16.6562V12.5938C9.37441 11.6964 10.2141 10.9688 11.2494 10.9688H17.8119V8.24027C17.8119 7.88633 18.2982 7.70148 18.5988 7.94168L23.533 11.8889C23.734 12.0499 23.734 12.3251 23.533 12.4861Z" fill="black"/>
</g>
<defs>
<clipPath id="clip0_69_24">
<rect width="30" height="26" fill="white"/>
</clipPath>
</defs>
</svg>
