<svg width="32" height="32" viewBox="0 0 32 32" fill="none" xmlns="http://www.w3.org/2000/svg">
<path d="M22.5858 4C24.3738 4 26.0938 4.70667 27.3592 5.97467C28.6258 7.24 29.3338 8.94667 29.3338 10.7333V21.2667C29.3338 24.9867 26.3072 28 22.5858 28H9.41384C5.69251 28 2.66718 24.9867 2.66718 21.2667V10.7333C2.66718 7.01333 5.67917 4 9.41384 4H22.5858ZM24.0938 10.9333C23.8138 10.9187 23.5472 11.0133 23.3458 11.2L17.3338 16C16.5605 16.6413 15.4525 16.6413 14.6672 16L8.66717 11.2C8.25251 10.8933 7.67917 10.9333 7.33384 11.2933C6.97384 11.6533 6.93384 12.2267 7.23917 12.6267L7.41384 12.8L13.4805 17.5333C14.2272 18.12 15.1325 18.44 16.0805 18.44C17.0258 18.44 17.9472 18.12 18.6925 17.5333L24.7072 12.72L24.8138 12.6133C25.1325 12.2267 25.1325 11.6667 24.7992 11.28C24.6138 11.0813 24.3592 10.96 24.0938 10.9333Z" fill="#1A1A1A"/>
</svg>
